<?xml version="1.0" encoding="UTF-8" standalone="no"?>
<!-- Created with Inkscape (http://www.inkscape.org/) -->
<svg
   xmlns:svg="http://www.w3.org/2000/svg"
   xmlns="http://www.w3.org/2000/svg"
   version="1.0"
   width="307.89307"
   height="386.2334"
   viewBox="0 0 307.89307 386.2334"
   id="svg2"
   xml:space="preserve"><defs
   id="defs89" />
	
		<g
   id="Ebene_2">
			<g
   id="CoA_Nr._11_8_">
				<path
   d="M 302.89307,232.21973 L 302.89307,5 L 5,5 L 5,232.21973 C 5,314.47949 71.891113,381.23437 154.15088,381.23437 C 236.40576,381.23926 302.89307,314.47949 302.89307,232.21973 z "
   style="fill:#ff0000"
   id="path8" />
				<path
   d="M 302.89307,232.21973 L 302.89307,5 L 5,5 L 5,232.21973 C 5,314.47949 71.891113,381.23437 154.15088,381.23437 C 236.40576,381.23926 302.89307,314.47949 302.89307,232.21973 z "
   style="fill:none;stroke:#cb952b;stroke-width:10"
   id="path10" />
			</g>
		</g>
		<g
   id="Ebene_4">
			<path
   d="M 10,212.12695 L 10,232.21973 C 10,280.62207 34.024414,323.52344 70.785644,349.64746 L 297.89307,115.45898 L 297.89307,10 L 206.01514,10 L 10,212.12695 z "
   style="fill:#ffffff"
   id="path13" />
		</g>
		<g
   id="Ebene_5">
			<g
   id="g16">
				<g
   id="g18">
					<path
   d="M 153.94531,272.54395 L 164.1582,214.44238 C 160.83789,213.86328 157.43164,213.54395 153.94531,213.54395 C 150.46094,213.54395 147.05273,213.86328 143.73438,214.44238 L 153.94531,272.54395 z "
   style="fill:#cb952b"
   id="path20" />
				</g>
				<g
   id="g22">
					<path
   d="M 153.94531,272.54395 L 164.1582,330.64551 C 160.83789,331.22363 157.43164,331.54395 153.94531,331.54395 C 150.46094,331.54395 147.05273,331.22363 143.73438,330.64551 L 153.94531,272.54395 z "
   style="fill:#cb952b"
   id="path24" />
				</g>
				<g
   id="g26">
					<path
   d="M 153.9458,272.54492 L 101.84424,244.87793 C 100.26709,247.85645 98.911133,250.99707 97.833496,254.3125 C 96.756836,257.62695 96.007324,260.9668 95.532715,264.30176 L 153.9458,272.54492 z "
   style="fill:#cb952b"
   id="path28" />
				</g>
				<g
   id="g30">
					<path
   d="M 153.9458,272.54492 L 212.35986,280.78613 C 211.88428,284.12305 211.13623,287.46094 210.05908,290.77734 C 208.98193,294.09082 207.62451,297.2334 206.04932,300.20996 L 153.9458,272.54492 z "
   style="fill:#cb952b"
   id="path32" />
				</g>
				<g
   id="g34">
					<path
   d="M 153.9458,272.54297 L 212.35986,264.30176 C 211.88525,260.96484 211.13623,257.62695 210.05908,254.31055 C 208.98193,250.99707 207.62549,247.85449 206.04932,244.87793 L 153.9458,272.54297 z "
   style="fill:#cb952b"
   id="path36" />
				</g>
				<g
   id="g38">
					<path
   d="M 153.9458,272.54297 L 101.84424,300.21094 C 100.26807,297.23145 98.911133,294.09082 97.833496,290.77539 C 96.756836,287.46094 96.008301,284.12109 95.532715,280.78613 L 153.9458,272.54297 z "
   style="fill:#cb952b"
   id="path40" />
				</g>
				<g
   id="g42">
					<path
   d="M 153.94727,272.54395 L 179.83643,325.55176 C 182.86377,324.06934 185.80615,322.3252 188.62744,320.27637 C 191.4458,318.22754 194.01611,315.9668 196.35986,313.54785 L 153.94727,272.54395 z "
   style="fill:#cb952b"
   id="path44" />
				</g>
				<g
   id="g46">
					<path
   d="M 153.94727,272.54395 L 111.5332,231.54199 C 113.87988,229.12207 116.44727,226.86133 119.26758,224.81152 C 122.0874,222.76367 125.03223,221.01953 128.05713,219.53711 L 153.94727,272.54395 z "
   style="fill:#cb952b"
   id="path48" />
				</g>
				<g
   id="g50">
					<path
   d="M 153.94629,272.54492 L 111.5332,313.54688 C 113.87891,315.9668 116.44678,318.22754 119.2666,320.27637 C 122.08643,322.3252 125.03125,324.06934 128.05615,325.55176 L 153.94629,272.54492 z "
   style="fill:#cb952b"
   id="path52" />
				</g>
				<g
   id="g54">
					<path
   d="M 153.94629,272.54492 L 179.83545,219.53711 C 182.86182,221.02051 185.80518,222.76367 188.62646,224.8125 C 191.44482,226.86133 194.01416,229.12305 196.35889,231.54102 L 153.94629,272.54492 z "
   style="fill:#cb952b"
   id="path56" />
				</g>
				<g
   id="g58">
					<circle
   cx="153.94629"
   cy="272.54395"
   r="47.333496"
   style="fill:#cb952b"
   id="circle60" /> 
				</g>
				<g
   id="g62">
					<path
   d="M 120.66602,260.78906 C 119.3667,264.4668 118.65283,268.4209 118.65283,272.54395 C 118.65283,276.66699 119.3667,280.62109 120.66602,284.29883 L 141.02637,272.54395 L 120.66602,260.78906 z "
   style="fill:none;stroke:#ffffff;stroke-width:2"
   id="path64" />
					<path
   d="M 127.13574,295.48242 C 132.27734,301.48633 139.396,305.73926 147.48633,307.23633 L 147.48633,283.7334 L 127.13574,295.48242 z "
   style="fill:none;stroke:#ffffff;stroke-width:2"
   id="path66" />
					<path
   d="M 147.48633,237.85156 C 139.396,239.34863 132.27686,243.60156 127.13574,249.60547 L 147.48633,261.35449 L 147.48633,237.85156 z "
   style="fill:none;stroke:#ffffff;stroke-width:2"
   id="path68" />
					<path
   d="M 187.22705,284.29883 C 188.52588,280.62109 189.23975,276.66602 189.23975,272.54395 C 189.23975,268.4209 188.52588,264.4668 187.22705,260.78906 L 166.86621,272.54395 L 187.22705,284.29883 z "
   style="fill:none;stroke:#ffffff;stroke-width:2"
   id="path70" />
					<path
   d="M 180.75732,249.60547 C 175.61572,243.60254 168.49707,239.34863 160.40625,237.85156 L 160.40625,261.35547 L 180.75732,249.60547 z "
   style="fill:none;stroke:#ffffff;stroke-width:2"
   id="path72" />
					<path
   d="M 160.40625,307.23633 C 168.49707,305.73926 175.61572,301.48535 180.75732,295.48145 L 160.40625,283.73242 L 160.40625,307.23633 z "
   style="fill:none;stroke:#ffffff;stroke-width:2"
   id="path74" />
				</g>
			</g>
			<g
   id="g76">
				<path
   d="M 193.979,61.992188 C 184.23682,68.009277 177.07373,80.616211 177.07373,80.616211 C 177.07373,80.616211 174.29541,71.741211 174.2085,66.290039 C 174.11768,60.608887 174.21436,59.849609 176.7876,51.104492 C 176.7876,51.104492 169.40869,55.489258 165.23291,61.834473 C 162.1748,66.481445 159.02246,76.60498 159.02246,76.60498 C 159.02246,76.60498 155.01172,57.694336 157.58984,45.660645 C 160.16797,33.626953 164.75293,23.024902 164.75293,23.024902 C 164.75293,23.024902 142.11768,29.041992 130.37012,69.155273 C 118.62256,109.26855 138.6792,138.49463 138.6792,138.49463 C 138.6792,138.49463 123.49365,126.17383 117.76318,108.98242 C 112.03271,91.791016 117.47656,76.318848 117.47656,76.318848 C 117.47656,76.318848 89.970215,98.953613 93.12207,128.75244 C 95.758789,153.68262 121.24512,184.41211 129.50684,193.79395 L 179.77783,193.79395 C 186.07764,189.17871 202.03271,165.9917 204.00732,143.93848 C 205.98193,121.88525 199.2417,105.03418 199.99658,91.791016 C 201.21436,70.433594 209.65869,64.591797 218.62061,55.975098 C 218.62061,55.975098 203.72119,55.975098 193.979,61.992188 z "
   style="fill:#cb952b"
   id="path78" />
			</g>
			<path
   d="M 175.92822,112.4209 C 175.92822,112.4209 184.79932,124.1709 185.09717,138.78076 C 185.3833,152.8208 181.65869,159.12402 175.64111,168.00635 C 175.64111,168.00635 180.53857,154.53955 180.22607,140.5 C 179.93896,127.60645 175.92822,112.4209 175.92822,112.4209 z "
   style="fill:#ffffff"
   id="path80" />
			<path
   d="M 152.146,191.21484 L 148.13477,191.21484 C 148.13477,191.21484 150.05371,183.06201 146.12891,173.16406 C 141.81543,162.28564 132.88281,153.55713 130.98193,151.45264 C 126.31543,146.28564 124.63965,143.07861 124.63965,143.07861 C 124.63965,143.07861 130.65674,146.80371 134.95459,151.38818 C 139.25244,155.97266 144.2959,160.7959 148.58496,168.96582 C 152.33545,176.10937 152.146,191.21484 152.146,191.21484 z "
   style="fill:#ffffff"
   id="path82" />
			<g
   id="g84">
				<path
   d="M 165.77246,210.86914 C 166.17871,211.12793 166.53125,211.43848 166.85352,211.86914 C 167.60547,212.86914 167.60547,217.36914 167.98145,220.36914 C 168.34863,223.36914 169.97607,223.49414 170.72803,223.49414 C 171.11084,223.49414 171.37158,218.94629 172.85205,215.36914 C 173.43506,213.9541 174.14111,212.3291 174.80811,210.86914 L 179.97803,210.86914 L 179.97803,196.74414 L 127.91504,196.74414 L 127.91504,210.86914 L 133.08643,210.86914 C 133.75195,212.3291 134.45508,213.9541 135.04004,215.36914 C 136.51807,218.94629 136.78369,223.49414 137.16504,223.49414 C 137.91504,223.49414 139.54004,223.36914 139.91504,220.36914 C 140.29004,217.36914 140.29004,212.86914 141.04004,211.86914 C 141.36279,211.43848 141.7124,211.12793 142.12158,210.86914 L 165.77246,210.86914 z "
   style="fill:#cb952b"
   id="path86" />
			</g>
		</g>
	</svg>